<svg xmlns="http://www.w3.org/2000/svg" width="32" height="14" viewBox="0 0 32 14">
  <metadata><?xpacket begin="﻿" id="W5M0MpCehiHzreSzNTczkc9d"?>
<x:xmpmeta xmlns:x="adobe:ns:meta/" x:xmptk="Adobe XMP Core 5.6-c138 79.159824, 2016/09/14-01:09:01        ">
   <rdf:RDF xmlns:rdf="http://www.w3.org/1999/02/22-rdf-syntax-ns#">
      <rdf:Description rdf:about=""/>
   </rdf:RDF>
</x:xmpmeta>
                                                                                                    
                                                                                                    
                                                                                                    
                                                                                                    
                                                                                                    
                                                                                                    
                                                                                                    
                                                                                                    
                                                                                                    
                                                                                                    
                                                                                                    
                                                                                                    
                                                                                                    
                                                                                                    
                                                                                                    
                                                                                                    
                                                                                                    
                                                                                                    
                                                                                                    
                                                                                                    
                           
<?xpacket end="w"?></metadata>
<defs>
    <style>
      .cls-1 {
        fill: #fff;
        fill-rule: evenodd;
      }
    </style>
  </defs>
  <path id="Фигура_777" data-name="Фигура 777" class="cls-1" d="M15.533,8.876a2.4,2.4,0,0,0,.934,0M18.3,9.985c2.595,2.057,6.835,4.819,9.8,3.73C31.517,12.462,32,10.046,32,7S31.517,1.544,28.1.291c-3.629-1.332-9.166,3.1-11.261,4.953a2.646,2.646,0,0,0-1.686,0C13.061,3.393,7.524-1.041,3.895.291,0.483,1.544,0,3.961,0,7s0.487,5.46,3.9,6.712c2.966,1.089,7.206-1.673,9.8-3.73m-7.3.876c-2.194-.9-3.2-1.837-3.2-3.09A5.569,5.569,0,0,1,6.4,3.137c1.592-.649,5,1.828,7.944,3.12a3.989,3.989,0,0,0,0,1.493C11.4,9.042,7.991,11.511,6.4,10.862Zm19.2,0c-1.591.65-5-1.819-7.944-3.112a3.917,3.917,0,0,0,0-1.493C20.6,4.964,24.009,2.488,25.6,3.137a5.568,5.568,0,0,1,3.2,4.635C28.8,9.025,27.794,9.966,25.6,10.862Z"/>
</svg>
